<svg xmlns="http://www.w3.org/2000/svg" width="180" height="40" viewBox="0 0 180 40" role="img" aria-label="Polyglot Info">
  <defs>
    <linearGradient id="g" x1="0" y1="0" x2="1" y2="1">
      <stop offset="0" stop-color="#42d9ff"/>
      <stop offset="1" stop-color="#4bf2a2"/>
    </linearGradient>
  </defs>
  <!-- Globe -->
  <circle cx="20" cy="20" r="14" fill="none" stroke="url(#g)" stroke-width="2"/>
  <path d="M6 20h28M20 6v28M10 12c5 3 15 3 20 0M10 28c5-3 15-3 20 0" stroke="url(#g)" stroke-width="2" fill="none" opacity="0.8"/>
  <!-- Bulle -->
  <path d="M44 9h40a7 7 0 0 1 7 7v6a7 7 0 0 1-7 7H61l-7 5v-5h-10a7 7 0 0 1-7-7v-6a7 7 0 0 1 7-7z" fill="#0f1113" stroke="url(#g)" stroke-width="2"/>
  <text x="47" y="23" fill="#bfefff" font-family="Inter,Segoe UI,Arial" font-size="11" font-weight="600">Polyglot Info</text>
</svg>
